<svg viewBox="0 0 304 29" xmlns="http://www.w3.org/2000/svg" fill-rule="evenodd" clip-rule="evenodd" stroke-linejoin="round" stroke-miterlimit="1.414"><path d="M12.694 6.651s-.608 2.964-1.102 4.674l-1.558 5.283h5.358l-1.52-5.283c-.494-1.71-1.102-4.674-1.102-4.674h-.076zm4.257 15.278H8.475L6.841 27.63H0L9.236.456h6.993l9.235 27.174h-6.841l-1.672-5.701zM27.792.457h6.727l7.525 12.693c1.064 1.787 2.281 4.637 2.281 4.637h.075s-.304-2.927-.304-4.637V.457h6.651v27.174h-6.689l-7.563-12.656c-1.064-1.787-2.28-4.637-2.28-4.637h-.076s.304 2.926.304 4.637v12.656h-6.651V.457zM68.388 0c6.727 0 10.185 3.839 10.185 3.839l-3.078 5.016s-3.041-2.774-6.803-2.774c-5.207 0-7.678 3.838-7.678 7.753 0 4.029 2.661 8.171 7.678 8.171 4.104 0 7.221-3.344 7.221-3.344l3.42 4.865s-3.838 4.56-10.945 4.56c-8.513 0-14.252-6.043-14.252-14.1C54.136 6.081 60.217 0 68.388 0m13.953.457h6.651v10.869h9.882V.457h6.65v27.174h-6.65V16.989h-9.882v10.642h-6.651V.457zm40.786 21.548c4.066 0 7.335-3.497 7.335-8.133 0-4.447-3.269-7.791-7.335-7.791s-7.335 3.344-7.335 7.791c0 4.636 3.269 8.133 7.335 8.133m0-22.005c8.209 0 14.214 6.081 14.214 13.872 0 7.981-6.005 14.214-14.214 14.214s-14.214-6.233-14.214-14.214C108.913 6.081 114.918 0 123.127 0m27.166 12.77c2.128 0 3.458-1.178 3.458-3.344 0-2.052-.76-3.269-4.104-3.269h-2.242v6.613h2.888zM140.753.457h9.464c2.774 0 4.104.189 5.283.645 3.078 1.178 5.016 3.953 5.016 7.906 0 2.888-1.368 6.043-4.066 7.41v.076s.38.495 1.026 1.634l5.283 9.502h-7.411l-4.827-9.159h-3.116v9.159h-6.652V.457zm26.799.017h4l6.232 14.693c.615 1.501 1.346 3.655 1.346 3.655h.077s.731-2.154 1.346-3.655L186.784.474h4.001l2.192 27.157h-3.769l-1.346-17.117c-.116-1.654-.039-4.001-.039-4.001h-.077s-.807 2.5-1.461 4.001l-5.424 12.231h-3.385l-5.385-12.231c-.616-1.462-1.462-4.078-1.462-4.078h-.077s.039 2.424-.076 4.078l-1.308 17.117h-3.808L167.552.474zm28.974 0h15.771v3.309h-11.963v8.5h9.732v3.308h-9.732v8.732h12.616v3.308h-16.424V.474zm19.404 0h3.77l12.078 17.655c1 1.462 2.269 3.924 2.269 3.924h.077s-.269-2.424-.269-3.924V.474h3.808v27.157h-3.731l-12.117-17.617c-1-1.501-2.269-3.962-2.269-3.962h-.077s.269 2.423.269 3.962v17.617h-3.808V.474zm59.612 13.607v8.921l7.664-4.496-7.664-4.425zm-1.677 13.526a1.676 1.676 0 0 1-1.677-1.677V12.144l-12.217-7.053v17.915l4.839-2.789a1.677 1.677 0 0 1 1.674 2.906l-7.353 4.238a1.675 1.675 0 0 1-2.514-1.453V2.186a1.679 1.679 0 0 1 2.515-1.452l13.056 7.538V2.186a1.677 1.677 0 0 1 2.516-1.452l28.246 16.308a1.676 1.676 0 0 1-.003 2.906l-12.893 7.414a1.677 1.677 0 0 1-1.672-2.907l10.37-5.964-23.21-13.4v5.117l11.836 6.834a1.675 1.675 0 0 1 .01 2.898l-12.674 7.436a1.673 1.673 0 0 1-.849.231" fill="#e10000" fill-rule="nonzero"></path></svg>